# xmcd
#
# Track frame offsets: 
#        150
#        16220
#        34587
#        53033
#        68573
#        94967
#        108942
#        128901
#        142903
#        163932
#        188243
#        206007
#        222978
#        239056
#        269460
#        289800
#        303612
#        328671
#        343681
#
# Disc length: 4786 seconds
#
# Revision: 1
# Processed by: cddbd v1.5.2PL0 Copyright (c) Steve Scherf et al.
# Submitted via: ExactAudioCopy v1.3
#
DISCID=2512b013
DTITLE=Various Artist - Akella Presents - Vol.60 - Electric Blues  CD
DTITLE=1
DYEAR=2016
DGENRE=Blues
TTITLE0=Steve Johnson - Tired Of Tryin'
TTITLE1=Jeff Pitchell And Texas Flood - Fat Cigars
TTITLE2=Full Trunk - Keep Trying
TTITLE3=The Blues Overdrive - Rolling Thunder
TTITLE4=Bryan Lee - Blues Singer
TTITLE5=Tinsley Ellis - Hard Work
TTITLE6=Snowy White and The White Flames - Falling
TTITLE7=Slim Bawb and The Fabulous Stumpgrinders - Dollhouse
TTITLE8=Tommy Castro and The Painkillers - Ride
TTITLE9=Tas Cru - A Month Of Somedays
TTITLE10=Mike Zito And The Wheel - Lonely Heart
TTITLE11=Jimmy Adler - Wild Imagination
TTITLE12=John Earl Walker Band - Introductory Plan
TTITLE13=Lee Mcbee and Mike Morgan - I Wanna Know
TTITLE14=Hugo Race and True Spirit - Elevate My Love
TTITLE15=Joel Johnson Band - Cash And Pawn
TTITLE16=Guy Tortora - Super Blue
TTITLE17=The Mule Newman Band - 454
TTITLE18=Anthony Geraci - Everything I Do Is Wrong
EXTD=
EXTT0=
EXTT1=
EXTT2=
EXTT3=
EXTT4=
EXTT5=
EXTT6=
EXTT7=
EXTT8=
EXTT9=
EXTT10=
EXTT11=
EXTT12=
EXTT13=
EXTT14=
EXTT15=
EXTT16=
EXTT17=
EXTT18=
PLAYORDER=
